<svg xmlns="http://www.w3.org/2000/svg" viewBox="0 0 77.29 52.35"><defs><style>.cls-1{fill:#00205b;}.cls-2{fill:#fff;}</style></defs><g id="Layer_2" data-name="Layer 2"><g id="Layer_1-2" data-name="Layer 1"><g id="Monogram_Dark_Blue"><path class="cls-1" d="M0,52.35V36.22C0,25.56,6.12,20.74,17.5,20.74H35.43A3.43,3.43,0,0,0,39.1,17a3.38,3.38,0,0,0-3.67-3.74H.5V0H35.43c11.3,0,17.49,6.62,17.49,15.48,0,9.07-6.62,15.27-17.35,15.27H17.5c-3.1,0-4.9,1.65-4.9,4.25v4H52.06V52.35Z"/><path class="cls-2" d="M48,52.35c-15.2,0-26.36-11.52-26.36-26.72C21.63,10.23,32.79,0,48,0h29.3V13.25H48a12.68,12.68,0,0,0-13,13C35,33.77,40.35,39,48,39h29.3V52.35Z"/><path class="cls-1" d="M39.1,17a3.38,3.38,0,0,0-3.67-3.74H.5V0H35.43c11.3,0,17.49,6.62,17.49,15.48M0,52.35V36.22"/></g></g></g></svg>