<svg xmlns="http://www.w3.org/2000/svg" viewBox="0 0 616.79 79.71"><defs><style>.cls-1{fill:#00205b;}.cls-2{fill:#c8012e;}</style></defs><g id="Layer_2" data-name="Layer 2"><g id="Layer_1-2" data-name="Layer 1"><g id="Wordmark"><path class="cls-1" d="M1.28,54.91V38.78C1.28,28.13,7.4,23.3,18.77,23.3H36.7a3.42,3.42,0,0,0,3.67-3.74,3.39,3.39,0,0,0-3.67-3.75H1.78V2.56H36.7C48,2.56,54.2,9.19,54.2,18.05c0,9.07-6.62,15.26-17.35,15.26H18.77c-3.09,0-4.89,1.66-4.89,4.25v4H53.34V54.91Z"/><path class="cls-1" d="M66.7,12.64v18.3H59.32V4.58C59.32,1.76,60.83,0,63.18,0a4.07,4.07,0,0,1,3,1.34l18.47,17V0H92V26.78c0,2.81-1.56,4.58-3.87,4.58a4,4,0,0,1-3-1.35Z"/><path class="cls-1" d="M96.34,30.94V.42h18.3C123.54.42,130,6.51,130,15.36s-6.46,15.58-15.36,15.58Zm18.3-7.77a7.25,7.25,0,0,0,7.6-7.43,7.4,7.4,0,0,0-7.6-7.6H104.06v15Z"/><path class="cls-1" d="M0,79.71V64.45H11.3c3.17,0,5.31,1.34,5.31,4a3.47,3.47,0,0,1-1.41,3,3.64,3.64,0,0,1,1.74,3.13c0,3.25-2.16,5.08-5.18,5.08Zm5.73-6.3V70.49H11.4c.86,0,1.26-.44,1.26-1.09s-.4-1.11-1.26-1.11H3.86v7.54h7.81A1.14,1.14,0,0,0,13,74.61a1.12,1.12,0,0,0-1.28-1.2Z"/><path class="cls-1" d="M23.27,79.71V76l-5.48-7h3.64l3.3,4.49L28,69h3.44L26,76v3.7Z"/><path class="cls-1" d="M46.28,79.71a7.54,7.54,0,0,1-7.68-7.79c0-4.49,3.25-7.47,7.68-7.47h8.55v3.86H46.28a3.7,3.7,0,0,0-3.8,3.8,3.61,3.61,0,0,0,3.8,3.72h8.55v3.88Z"/><path class="cls-1" d="M56.24,79.71V69H66.1v2.7H58.94V77h7.19v2.72Zm4-4.41v-2h5.44v2Z"/><path class="cls-1" d="M76.59,79.71l-2.5-2.85H71.45V74.58h3.84a1.43,1.43,0,1,0,0-2.85H70.14v8h-2.7V69h7.85a3.75,3.75,0,0,1,4.09,4,3.45,3.45,0,0,1-2.13,3.46l3.19,3.2Z"/><path class="cls-1" d="M81.12,79.71V69H91v2.7H83.83V77H91v2.72Zm4-4.41v-2h5.43v2Z"/><path class="cls-1" d="M92.33,79.71V69h7.9c2.22,0,3.72.94,3.72,2.8A2.4,2.4,0,0,1,103,74a2.55,2.55,0,0,1,1.22,2.19,3.35,3.35,0,0,1-3.63,3.56Zm4-4.41v-2h4c.61,0,.89-.31.89-.76s-.28-.78-.89-.78H95V77h5.47a.85.85,0,1,0,0-1.69Z"/><path class="cls-1" d="M114.68,79.71l-2.5-2.85h-2.64V74.58h3.83a1.43,1.43,0,1,0,0-2.85h-5.14v8h-2.7V69h7.84a3.76,3.76,0,0,1,4.1,4,3.45,3.45,0,0,1-2.13,3.46l3.19,3.2Z"/><path class="cls-1" d="M129.82,79.71l-1.39-2.37h-4l1.2-2h1.56l-1.53-2.58-4.11,7h-3.09l6-10a1.41,1.41,0,0,1,2.6,0l6,10Z"/><path class="cls-1" d="M133.94,79.71V69h2.72v8h6.64v2.72Z"/><path class="cls-2" d="M172.77,54.91c-15.2,0-26.36-11.52-26.36-26.71,0-15.41,11.16-25.64,26.36-25.64h29.3V15.81h-29.3a12.69,12.69,0,0,0-13,13c0,7.49,5.4,12.74,13,12.74h29.3V54.91Z"/><path class="cls-2" d="M232.88,54.91c-15.19,0-26.35-11.52-26.35-26.71,0-15.41,11.16-25.64,26.35-25.64h13.18c15.63,0,26.43,10.45,26.43,25.64S261.4,54.91,246.06,54.91Zm13.18-13.32c7.78,0,13.18-5.33,13.18-12.74s-5.47-13-13.18-13H232.88a12.69,12.69,0,0,0-13,13c0,7.49,5.4,12.74,13,12.74Z"/><path class="cls-2" d="M323.32,54.91l-6.84-11.59H297l5.9-10h7.63l-7.48-12.67L282.92,54.91H267.8L297.18,6.09c1.59-2.59,3.53-4.25,6.41-4.25s4.75,1.66,6.34,4.25L339.3,54.91Z"/><path class="cls-2" d="M343.47,54.91V2.56H356.8v39h32.54V54.91Z"/><path class="cls-2" d="M395,54.91V2.56h13.33V54.91Z"/><path class="cls-2" d="M432,54.91V15.81H413.31V2.56h50.55V15.81H445.28v39.1Z"/><path class="cls-2" d="M469,54.91V2.56h13.32V54.91Z"/><path class="cls-2" d="M515.27,54.91c-15.2,0-26.36-11.52-26.36-26.71,0-15.41,11.16-25.64,26.36-25.64h13.17c15.63,0,26.43,10.45,26.43,25.64s-11.09,26.71-26.43,26.71Zm13.17-13.32c7.78,0,13.18-5.33,13.18-12.74s-5.47-13-13.18-13H515.27a12.69,12.69,0,0,0-13,13c0,7.49,5.4,12.74,13,12.74Z"/><path class="cls-2" d="M573.37,23.52V54.91H560.7V9.69c0-4.82,2.59-7.85,6.62-7.85,1.94,0,3.31.65,5.11,2.31l31.69,29.16V1.92h12.67V47.78c0,4.83-2.66,7.85-6.63,7.85a6.85,6.85,0,0,1-5.11-2.3Z"/><path class="cls-2" d="M150.41,75.7V72h5.27c1.31,0,2.08-.71,2.08-1.82s-.77-1.83-2.08-1.83h-7.13v11.4h-3.87V64.45h11c3.7,0,5.88,2.16,5.88,5.56s-2.18,5.69-5.88,5.69Z"/><path class="cls-2" d="M167.77,79.71a5.28,5.28,0,0,1-5.38-5.45A5.07,5.07,0,0,1,167.77,69h2.69a5.06,5.06,0,0,1,5.39,5.23,5.27,5.27,0,0,1-5.39,5.45ZM170.46,77a2.54,2.54,0,0,0,2.69-2.6,2.59,2.59,0,0,0-2.69-2.66h-2.69a2.59,2.59,0,0,0-2.66,2.66,2.52,2.52,0,0,0,2.66,2.6Z"/><path class="cls-2" d="M177.09,79.71V69h2.72v8h6.64v2.72Z"/><path class="cls-2" d="M187.6,79.71V69h2.72V79.71Z"/><path class="cls-2" d="M197.05,79.71a5.27,5.27,0,0,1-5.37-5.45A5.07,5.07,0,0,1,197.05,69h6v2.7h-6a2.59,2.59,0,0,0-2.66,2.66,2.53,2.53,0,0,0,2.66,2.6h6v2.72Z"/><path class="cls-2" d="M209,79.71V76l-5.48-7h3.65l3.29,4.49L213.77,69h3.43l-5.49,7v3.7Z"/></g></g></g></svg>